PathFileType	4	(X/Y/Z)	/Users/niels/Desktop/University/Third Semester/Perception and Action/Exam/Gymnastics Motion Tracking/Code for Gym Tracking/Analyzed Data/Webcam_Backflip/id6_2_trajectory_Sports2D/id6_2_trajectory_Sports2D_px_person00.trc
DataRate	CameraRate	NumFrames	NumMarkers	Units	OrigDataRate	OrigDataStartFrame	OrigNumFrames
29.714285714285715	29.714285714285715	16	22	m	29.714285714285715	35	105
Frame#	Time	Hip			RHip			RKnee			RAnkle			RBigToe			RSmallToe			RHeel			LHip			LKnee			LAnkle			LBigToe			LSmallToe			LHeel			Neck			Head			Nose			RShoulder			RElbow			RWrist			LShoulder			LElbow			LWrist		
		X1	Y1	Z1	X2	Y2	Z2	X3	Y3	Z3	X4	Y4	Z4	X5	Y5	Z5	X6	Y6	Z6	X7	Y7	Z7	X8	Y8	Z8	X9	Y9	Z9	X10	Y10	Z10	X11	Y11	Z11	X12	Y12	Z12	X13	Y13	Z13	X14	Y14	Z14	X15	Y15	Z15	X16	Y16	Z16	X17	Y17	Z17	X18	Y18	Z18	X19	Y19	Z19	X20	Y20	Z20	X21	Y21	Z21	X22	Y22	Z22
35	1.1778846153846154	0.9462166408002111	-1.1286888157889508	0.0	0.9325771821704822	-1.1256798978787952	0.0	1.163297325892314	-1.0745447915061883	0.0	1.1522421662012734	-1.0672006151676179	0.0			0.0			0.0			0.0	0.910964369466397	-1.128714314191413	0.0	1.1380834231165733	-1.0393286968990822	0.0	1.161098837852478	-1.0638793634176253	0.0			0.0			0.0			0.0	0.9560589985999807	-0.8811964225436494	0.0	0.9932561944196303	-0.7609834761332565	0.0	1.0183470938210206	-0.8315579634372408	0.0	0.9335307516135181	-0.8971336712304467	0.0	1.0557797733556107	-0.8100381788763842	0.0	1.1431726751634583	-0.6786250629644631	0.0	0.9440122334239047	-0.908703706563876	0.0	1.0837307315027387	-0.8500099847279559	0.0	1.196531160939173	-1.0440394591295579	0.0
36	1.2115384615384615	0.9497665988979473	-1.1299940872457468	0.0	0.9290699046376641	-1.1290841078372436	0.0	1.163299032084889	-1.0745401724169623	0.0	1.1522421662012734	-1.0672006151676179	0.0			0.0			0.0			0.0	0.9116829675408074	-1.130648594065865	0.0	1.1395485085327564	-1.0402651009558768	0.0	1.161098837852478	-1.0638793634176253	0.0			0.0			0.0			0.0	0.9547811668841416	-0.8817966411941663	0.0	0.9918312714672549	-0.760178273348225	0.0	1.0171651905136052	-0.8325402350935391	0.0	0.93163755192389	-0.8981199097348865	0.0	1.051872706597812	-0.8079501463236963	0.0	1.1369052769720582	-0.6740288359944274	0.0	0.9406736213653634	-0.9086703547030465	0.0	1.083692307913358	-0.850120672102235	0.0	1.196480517953227	-1.0440523415074112	0.0
37	1.2451923076923077	0.9538954402254441	-1.1308307256483547	0.0	0.926324414798902	-1.1310786957241465	0.0	1.1633013273073636	-1.07453395867664	0.0	1.1522421662012734	-1.0672006151676179	0.0			0.0			0.0			0.0	0.9111639445469376	-1.1316417602337783	0.0	1.1409507813881001	-1.0411567531310477	0.0	1.161098837852478	-1.0638793634176253	0.0			0.0			0.0			0.0	0.953687030941162	-0.8820585061558477	0.0	0.9905022091480914	-0.7596137773486233	0.0	1.0160596929338654	-0.8334078069585587	0.0	0.9303012010705788	-0.8989931146843939	0.0	1.0486338119050325	-0.8058048344852466	0.0	1.1316653265956729	-0.6688957808095404	0.0	0.936292805959592	-0.9085799918278945	0.0	1.0836260972437832	-0.850167510008635	0.0	1.1964051379216827	-1.0440678954244347	0.0
38	1.2788461538461537	0.9577225982800691	-1.1312972728952084	0.0	0.9246367608237356	-1.1319734264843215	0.0	1.1633035492027406	-1.0745279434508712	0.0	1.1522421662012734	-1.0672006151676179	0.0			0.0			0.0			0.0	0.9097746263015039	-1.131843394240108	0.0	1.142171795450884	-1.0419966185156735	0.0	1.161098837852478	-1.0638793634176253	0.0			0.0			0.0			0.0	0.9529642472586402	-0.8819666685520986	0.0	0.9894517151580756	-0.759246085473295	0.0	1.015118931370821	-0.8338609030723442	0.0	0.9293195235744207	-0.8994743501559792	0.0	1.0464074511656354	-0.8037320955965027	0.0	1.1277147742497722	-0.6639247583737249	0.0	0.9322270448124501	-0.9085087982351328	0.0	1.0835445761293891	-0.8500516273282114	0.0	1.1963193232880094	-1.044079874183494	0.0
39	1.3125	0.9605260909615665	-1.1310045238184405	0.0	0.9242088312625756	-1.131610937248073	0.0	1.163304141159315	-1.0745263408760437	0.0	1.1522421662012734	-1.0672006151676179	0.0			0.0			0.0			0.0	0.9080274184480793	-1.1308094566505988	0.0	1.1430432251687312	-1.0428041776320287	0.0	1.161098837852478	-1.0638793634176253	0.0			0.0			0.0			0.0	0.9528035561556164	-0.8816283791816972	0.0	0.9889782621604635	-0.7589574518176673	0.0	1.0146031637415767	-0.8338303413853368	0.0	0.9286610311930996	-0.8993027990244433	0.0	1.0455826596372908	-0.8019888226584366	0.0	1.125566467932111	-0.6603170231462328	0.0	0.9295183149561952	-0.9084736465818397	0.0	1.0834739705396388	-0.8496140097672702	0.0	1.1962645034703425	-1.0440753958169997	0.0
40	1.346153846153846	0.9619373711276097	-1.1292893187780546	0.0	0.9251226106186933	-1.1294845693418618	0.0	1.1633003977131628	-1.0745364753183677	0.0	1.1522421662012734	-1.0672006151676179	0.0			0.0			0.0			0.0	0.9063963896953908	-1.1277676362584512	0.0	1.1433627622848723	-1.0436232213415533	0.0	1.161098837852478	-1.0638793634176253	0.0			0.0			0.0			0.0	0.9533534874641973	-0.8811802752081149	0.0	0.9894011230932853	-0.7586440645196925	0.0	1.0148263928502033	-0.833472962329071	0.0	0.9283482440564176	-0.8983783862517388	0.0	1.0465970242826081	-0.8010246062166739	0.0	1.1260973293594903	-0.6595151674788174	0.0	0.9290471648712737	-0.908442596684892	0.0	1.0834663205231447	-0.8486699596279436	0.0	1.1963207161576084	-1.0440339664216018	0.0
41	1.3798076923076923	0.9616872336256891	-1.1254994821911386	0.0	0.9274441789434468	-1.12502180590108	0.0	1.1632885987216832	-1.0745684181327095	0.0	1.1522421662012734	-1.0672006151676179	0.0			0.0			0.0			0.0	0.9052461346504096	-1.1220426329470143	0.0	1.142974663283976	-1.0445231996852193	0.0	1.161098837852478	-1.0638793634176253	0.0			0.0			0.0			0.0	0.9545944698197729	-0.8806712391640725	0.0	0.9909479265144917	-0.7582569187231663	0.0	1.0159258512490077	-0.8330110176590726	0.0	0.9285298292501579	-0.8967606979464305	0.0	1.04994440038895	-0.8015294443568778	0.0	1.1305071686226855	-0.6628776733002933	0.0	0.9305556393944338	-0.9082375180961437	0.0	1.0836073435052505	-0.8471025629100939	0.0	1.1966092176713208	-1.043930077177149	0.0
42	1.4134615384615383	0.959512200400306	-1.1193166643389716	0.0	0.9311225598816508	-1.117972603613995	0.0	1.1632649976234715	-1.0746323121965569	0.0	1.1522421662012734	-1.0672006151676179	0.0			0.0			0.0			0.0	0.9050477933450659	-1.1136150061220613	0.0	1.1418848913282023	-1.0455890925553006	0.0	1.161098837852478	-1.0638793634176253	0.0			0.0			0.0			0.0	0.9563035561147923	-0.8800494434546159	0.0	0.9936610046861716	-0.7578010275577567	0.0	1.0177813546131573	-0.8325963639483865	0.0	0.929498199462679	-0.8946504579750003	0.0	1.0561043721315309	-0.8044424207093047	0.0	1.140000445169374	-0.6716488116357691	0.0	0.9323531626711924	-0.9075409737189852	0.0	1.084010224734496	-0.8450394956809484	0.0	1.1972718764228936	-1.0437427604301934	0.0
43	1.4471153846153846	0.9555367466549539	-1.1111875593117309	0.0	0.9355570398527077	-1.1089532674702858	0.0	1.1632282327376644	-1.074731843920884	0.0	1.1522421662012734	-1.0672006151676179	0.0			0.0			0.0			0.0	0.9067034285359804	-1.1036585655389088	0.0	1.1402781348227518	-1.0468844947500846	0.0	1.161098837852478	-1.0638793634176253	0.0			0.0			0.0			0.0	0.9581852328232876	-0.8792526989014827	0.0	0.9973030083951688	-0.7573321361310653	0.0	1.0201031671189131	-0.8322793648281714	0.0	0.9314732888520948	-0.892454172024341	0.0	1.0652950376344965	-0.8109322737719032	0.0	1.1552263400582352	-0.6872522809593595	0.0	0.9327406411083873	-0.9061390108220618	0.0	1.0847807649642915	-0.8431181979995982	0.0	1.198407781320533	-1.0434757610091914	0.0
44	1.4807692307692306	0.9505761824862218	-1.1026793953614644	0.0	0.9394252840191589	-1.099867372259224	0.0	1.163183609728624	-1.074852649549236	0.0	1.1522421662012734	-1.0672006151676179	0.0			0.0			0.0			0.0	0.9115709824170064	-1.0944686043175618	0.0	1.1383944882511545	-1.0484146568395107	0.0	1.161098837852478	-1.0638793634176253	0.0			0.0			0.0			0.0	0.9600262832340449	-0.8783239787941386	0.0	1.0013224467094632	-0.7569404909088248	0.0	1.0225841158978213	-0.8320786948975414	0.0	0.9342940405681134	-0.8908439717664526	0.0	1.077037539310749	-0.8223450155189941	0.0	1.1756298940185677	-0.7114199316836771	0.0	0.931996528478263	-0.9042666621539317	0.0	1.0859369968946093	-0.8427935143153794	0.0	1.1999476346206304	-1.0431902419658885	0.0
45	1.5144230769230769	0.9458431827373526	-1.0960231269604437	0.0	0.9412744389805159	-1.0933198478968724	0.0	1.1631491177509845	-1.074946027951002	0.0	1.1522421662012734	-1.0672006151676179	0.0			0.0			0.0			0.0	0.9208916747754341	-1.0884081592525239	0.0	1.1364131008755811	-1.050131140921554	0.0	1.161098837852478	-1.0638793634176253	0.0			0.0			0.0			0.0	0.9617629508149352	-0.8774775431801494	0.0	1.0050407198783973	-0.7567200254796235	0.0	1.025028948428246	-0.8320907230429787	0.0	0.9373516092461796	-0.8906382502770974	0.0	1.0897340745300421	-0.8400644248595014	0.0	1.198948332023212	-0.7457036898731237	0.0	0.9326417677058919	-0.9026696480410089	0.0	1.0872716992994353	-0.8465482503576907	0.0	1.201459529789771	-1.0430464802282604	0.0
46	1.548076923076923	0.9422836304101413	-1.0927186203145063	0.0	0.9404272788937096	-1.0910135838736756	0.0	1.1631617130295124	-1.0749119294013827	0.0	1.1522421662012734	-1.0672006151676179	0.0			0.0			0.0			0.0	0.9343876139574183	-1.0866261209421635	0.0	1.1344348730087832	-1.051963088996833	0.0	1.161098837852478	-1.0638793634176253	0.0			0.0			0.0			0.0	0.9634286530323181	-0.877040652647424	0.0	1.0080465920067216	-0.7567694877957318	0.0	1.0273926574408276	-0.8325181941888827	0.0	0.9400231295337512	-0.8924648979666582	0.0	1.1006701529569662	-0.8650758056097918	0.0	1.2210824975451748	-0.7905742450609057	0.0	0.9371937861202316	-0.902196448077197	0.0	1.0881667523102379	-0.857731496691103	0.0	1.201915462934463	-1.0433400883820794	0.0
47	1.5817307692307692	0.9401298306951534	-1.0925096518586015	0.0	0.9373179993356658	-1.0926931527683073	0.0	1.1632801431316395	-1.074591309569105	0.0	1.1522421662012734	-1.0672006151676179	0.0			0.0			0.0			0.0	0.9491509991029087	-1.0886192487644628	0.0	1.13251515872874	-1.053835225743869	0.0	1.161098837852478	-1.0638793634176253	0.0			0.0			0.0			0.0	0.9650605675135244	-0.8772991223759166	0.0	1.0104670130019038	-0.7572301673165045	0.0	1.0297741032283423	-0.8335563586009882	0.0	0.9421022085707494	-0.8964485873411139	0.0	1.1065063388474314	-0.8972761097963377	0.0	1.2364695545484676	-0.8445955465194079	0.0	0.9458740489817562	-0.903334096252001	0.0	1.0874122508021602	-0.8796010978579691	0.0	1.199515340161285	-1.044501301356162	0.0
48	1.6153846153846154	0.9389802548089429	-1.0937648211757756	0.0	0.9330147631153741	-1.0966189885848	0.0	1.1635775451273764	-1.0737861681429712	0.0	1.1522421662012734	-1.0672006151676179	0.0			0.0			0.0			0.0	0.9611715751094503	-1.0927886593141016	0.0	1.1306999277316985	-1.0556658871082862	0.0	1.161098837852478	-1.0638793634176253	0.0			0.0			0.0			0.0	0.9667159634439281	-0.8783497190586328	0.0	1.012836852390633	-0.7582762126236096	0.0	1.0323709143226472	-0.835207997734556	0.0	0.9436510549640559	-0.9021632546259526	0.0	1.103869675483578	-0.9349497118373641	0.0	1.2390438946291726	-0.9038228369291053	0.0	0.9565052056131559	-0.9060958973039304	0.0	1.0831553410605246	-0.9130640445122022	0.0	1.1917653033522873	-1.0470052554356901	0.0
49	1.6490384615384615	0.9382730372677321	-1.0946386219777662	0.0	0.9284712237023113	-1.1007625733603914	0.0	1.1641141093786735	-1.0723335547753237	0.0	1.1522421662012734	-1.0672006151676179	0.0			0.0			0.0			0.0	0.9684326749966061	-1.097328005488215	0.0	1.129052435017782	-1.057358524420953	0.0	1.161098837852478	-1.0638793634176253	0.0			0.0			0.0			0.0	0.9685348402427919	-0.8800423339114383	0.0	1.0157219292989803	-0.760018230115989	0.0	1.0353393895583671	-0.8372638441273809	0.0	0.9446111103965117	-0.9088523465948901	0.0	1.0899763053621943	-0.9747722552121009	0.0	1.2237877209140888	-0.9618401236541951	0.0	0.9664692371943834	-0.9101168937206104	0.0	1.0734204882405438	-0.9542310640930977	0.0	1.1761209395437313	-1.0511252933495934	0.0
50	1.6826923076923077	0.937719555193358	-1.0940247428153493	0.0	0.9241127443492362	-1.1035913964049393	0.0	1.1648793207618475	-1.070261936509406	0.0	1.1522421662012734	-1.0672006151676179	0.0			0.0			0.0			0.0	0.9717486870124488	-1.1008087953143415	0.0	1.127659939211587	-1.0588018358453848	0.0	1.161098837852478	-1.0638793634176253	0.0			0.0			0.0			0.0	0.9706704713553462	-0.8820687198279771	0.0	1.0194507302569735	-0.7624064626045541	0.0	1.0386851414339602	-0.8395295546717557	0.0	0.9447057837621594	-0.9156958013077393	0.0	1.0635674859208428	-1.0124042096363872	0.0	1.188710801324516	-1.0114357428188647	0.0	0.9746990261714451	-0.9147604430330488	0.0	1.0575350752590955	-0.9952744019677691	0.0	1.1517257547724171	-1.0566224575629486	0.0
